<?xml version="1.0" encoding="UTF-8"?>
<!-- Generated by jsxcad -->
<!DOCTYPE svg PUBLIC "-//W3C//DTD SVG 1.1 Tiny//EN" "http://www.w3.org/Graphics/SVG/1.1/DTD/svg11-tiny.dtd">
<svg baseProfile="tiny" height="6.19999980926514mm" width="5.369357585906986mm" viewBox="0 0 5.369357585906986 6.19999980926514" version="1.1" stroke="black" stroke-width=".1" fill="none" xmlns="http://www.w3.org/2000/svg">
<path fill="#c0c0c0" stroke="#c0c0c0" d="M2.68468 6.2 L0 4.65 L0 1.55 L2.68468 0 L5.36936 1.55 L5.36936 4.65 z"/>
<path fill="#c0c0c0" stroke="#c0c0c0" d="M-2.0647652953454096e-8 1.5499999642372144 L-2.0647652953454096e-8 1.5499999642372144 L2.6846796982383947 -5.226664559212713e-7 L2.6846796982383947 -5.226664559212713e-7 z"/>
<path fill="#c0c0c0" stroke="#c0c0c0" d="M5.369359417124441 1.5500010095701289 L5.369359417124441 1.5500010095701289 L2.6846796982383934 5.226664585858067e-7 L2.6846796982383934 5.226664585858067e-7 z"/>
<path fill="#c0c0c0" stroke="#c0c0c0" d="M2.684679615647778 6.199999334282393 L2.684679615647778 6.199999334282393 L5.369359334533826 4.649998847378723 L5.369359334533826 4.649998847378723 z"/>
<path fill="#c0c0c0" stroke="#c0c0c0" d="M5.369357585906984 4.65 L5.369357585906984 4.65 L5.369357585906984 1.55 L5.369357585906984 1.55 z"/>
<path fill="#c0c0c0" stroke="#c0c0c0" d="M1.7763568394002505e-15 4.65 L1.7763568394002505e-15 4.65 L1.7763568394002505e-15 1.55 L1.7763568394002505e-15 1.55 z"/>
<path fill="#c0c0c0" stroke="#c0c0c0" d="M6.194296227123724e-8 4.649999892711637 L6.194296227123724e-8 4.649999892711637 L2.68467978082901 6.200000379615307 L2.68467978082901 6.200000379615307 z"/>
<path fill="#c0c0c0" stroke="#c0c0c0" d="M0 4.65 L2.68468 6.2 L5.36936 4.65 L5.36936 1.55 L2.68468 0 L0 1.55 z"/>
</svg>