<?xml version="1.0" encoding="UTF-8"?>
<!-- Generated by jsxcad -->
<!DOCTYPE svg PUBLIC "-//W3C//DTD SVG 1.1 Tiny//EN" "http://www.w3.org/Graphics/SVG/1.1/DTD/svg11-tiny.dtd">
<svg baseProfile="tiny" height="6.350000000000003mm" width="5.499261314031189mm" viewBox="0 0 5.499261314031189 6.350000000000003" version="1.1" stroke="black" stroke-width=".1" fill="none" xmlns="http://www.w3.org/2000/svg">
<path fill="#c0c0c0" stroke="#c0c0c0" d="M0 1.5875 L2.74963 0 L5.49926 1.5875 L5.49926 4.7625 L2.74963 6.35 L0 4.7625 z"/>
<path fill="#c0c0c0" stroke="#c0c0c0" d="M2.7496301642538974 -2.844960966494823e-7 L2.7496301642538974 -2.844960966494823e-7 L5.499260328507796 1.5874994310078063 L5.499260328507796 1.5874994310078063 z"/>
<path fill="#c0c0c0" stroke="#c0c0c0" d="M5.4992613140311875 4.7625 L5.4992613140311875 4.7625 L5.4992613140311875 1.5875 L5.4992613140311875 1.5875 z"/>
<path fill="#c0c0c0" stroke="#c0c0c0" d="M-2.1407356224084743e-16 4.7625 L-2.1407356224084743e-16 4.7625 L2.7496301642538974 6.349999715503903 L2.7496301642538974 6.349999715503903 z"/>
<path fill="#c0c0c0" stroke="#c0c0c0" d="M2.749630164253899 6.350000284496098 L2.749630164253899 6.350000284496098 L5.499260328507797 4.762500568992196 L5.499260328507797 4.762500568992196 z"/>
<path fill="#c0c0c0" stroke="#c0c0c0" d="M1.77635683940025e-15 1.5874999999999997 L1.77635683940025e-15 1.5874999999999997 L2.2204460492503127e-15 4.762499999999999 L2.2204460492503127e-15 4.762499999999999 z"/>
<path fill="#c0c0c0" stroke="#c0c0c0" d="M1.3094224187226662e-15 1.5875000000000021 L1.3094224187226662e-15 1.5875000000000021 L2.749630164253899 2.8449609931401753e-7 L2.749630164253899 2.8449609931401753e-7 z"/>
<path fill="#c0c0c0" stroke="#c0c0c0" d="M2.74963 0 L0 1.5875 L0 4.7625 L2.74963 6.35 L5.49926 4.7625 L5.49926 1.5875 z"/>
</svg>