<?xml version="1.0" encoding="UTF-8"?>
<!-- Generated by jsxcad -->
<!DOCTYPE svg PUBLIC "-//W3C//DTD SVG 1.1 Tiny//EN" "http://www.w3.org/Graphics/SVG/1.1/DTD/svg11-tiny.dtd">
<svg viewBox="-250 -250 500 500" width="500" height="500" xmlns="http://www.w3.org/2000/svg"><path d="M-62.94409084162284,-118.72845741007085L9.58079748535005,21.75194910404579L55.95557279679477,10.092367851939718z" style="fill:rgb(127,37,217)"/><path d="M-25.78441149522929,53.568337802813005L9.58079748535005,21.75194910404579L-62.94409084162284,-118.72845741007085z" style="fill:rgb(204,78,216)"/><path d="M-11.042627717001166,-133.8454430689931L55.95557279679477,10.092367851939718L94.2478467636731,24.074123306859352z" style="fill:rgb(50,38,176)"/><path d="M-34.91035880032384,92.84166254505298L-25.78441149522929,53.568337802813005L-104.30577837048735,-84.50696838440506z" style="fill:rgb(245,142,173)"/><path d="M55.95557279679477,10.092367851939718L-11.042627717001166,-133.8454430689931L-62.94409084162284,-118.72845741007085z" style="fill:rgb(127,37,217)"/><path d="M-62.94409084162284,-118.72845741007085L-104.30577837048735,-84.50696838440506L-25.78441149522929,53.568337802813005z" style="fill:rgb(204,78,216)"/><path d="M182.45421043415186,98.61218562866785L162.76444908137097,-24.383001378419237L109.5418476280052,-176.3574089900442z" style="fill:rgb(247,158,158)"/><path d="M-104.30577837048735,-84.50696838440506L-62.94409084162284,-118.72845741007085L-34.79845944525385,-184.40957421124907zM109.5418476280052,-176.3574089900442L-34.79845944525385,-184.40957421124907L-62.94409084162284,-118.72845741007085z" style="fill:rgb(83,212,212)"/><path d="M94.2478467636731,24.074123306859352L30.392108463765634,-122.9818554016901L-11.042627717001166,-133.8454430689931z" style="fill:rgb(50,38,176)"/><path d="M-104.30577837048735,-84.50696838440506L-117.6281443905837,-44.59829013867961L-34.91035880032384,92.84166254505298z" style="fill:rgb(245,142,173)"/><path d="M-34.79845944525385,-184.40957421124907L-173.31381422648136,-93.46896938224333L-195.81504342092376,29.56357040955525zM-104.30577837048735,-84.50696838440506L-34.79845944525385,-184.40957421124907L-195.81504342092376,29.56357040955525zM109.5418476280052,-176.3574089900442L-62.94409084162284,-118.72845741007085L-11.042627717001166,-133.8454430689931z" style="fill:rgb(83,212,212)"/><path d="M-195.81504342092376,29.56357040955525L-100.28520630871114,161.65410153806107L38.43984420312772,203.9257456394986z" style="fill:rgb(67,34,190)"/><path d="M109.5418476280052,-176.3574089900442L-11.042627717001166,-133.8454430689931L30.392108463765634,-122.9818554016901zM-117.6281443905837,-44.59829013867961L-104.30577837048735,-84.50696838440506L-195.81504342092376,29.56357040955525z" style="fill:rgb(83,212,212)"/><path d="M109.5418476280052,-176.3574089900442L124.9482795843158,-54.73397978254965L182.45421043415186,98.61218562866785z" style="fill:rgb(247,158,158)"/><path d="M38.43984420312772,203.9257456394986L182.45421043415186,98.61218562866785L124.9482795843158,-54.73397978254965z" style="fill:rgb(187,64,221)"/><path d="M-94.12264967010726,-16.66140442780575L-117.6281443905837,-44.59829013867961L-195.81504342092376,29.56357040955525zM124.9482795843158,-54.73397978254965L109.5418476280052,-176.3574089900442L30.392108463765634,-122.9818554016901zM-41.63003478071163,-16.22227043373851L-94.12264967010726,-16.66140442780575L-195.81504342092376,29.56357040955525zM124.9482795843158,-54.73397978254965L30.392108463765634,-122.9818554016901L41.587618148172986,-88.61335091270368z" style="fill:rgb(83,212,212)"/><path d="M38.43984420312772,203.9257456394986L-44.87580284279684,63.6856581290176L-195.81504342092376,29.56357040955525z" style="fill:rgb(67,34,190)"/><path d="M-41.63003478071163,-16.22227043373851L-195.81504342092376,29.56357040955525L124.9482795843158,-54.73397978254965zM124.9482795843158,-54.73397978254965L41.587618148172986,-88.61335091270368L13.498489822109587,-45.475533266941625zM124.9482795843158,-54.73397978254965L13.498489822109587,-45.475533266941625L-41.63003478071163,-16.22227043373851z" style="fill:rgb(83,212,212)"/><path d="M124.9482795843158,-54.73397978254965L-44.87580284279684,63.6856581290176L38.43984420312772,203.9257456394986z" style="fill:rgb(187,64,221)"/><path d="M-195.81504342092376,29.56357040955525L-44.87580284279684,63.6856581290176L124.9482795843158,-54.73397978254965z" style="fill:rgb(83,212,212)"/></svg>
