<?xml version="1.0" encoding="UTF-8"?>
<!-- Generated by jsxcad -->
<!DOCTYPE svg PUBLIC "-//W3C//DTD SVG 1.1 Tiny//EN" "http://www.w3.org/Graphics/SVG/1.1/DTD/svg11-tiny.dtd">
<svg baseProfile="tiny" height="6.5000000000000036mm" width="5.629165172576908mm" viewBox="0 0 5.629165172576908 6.5000000000000036" version="1.1" stroke="black" stroke-width=".1" fill="none" xmlns="http://www.w3.org/2000/svg">
<path fill="#c0c0c0" stroke="#c0c0c0" d="M0 4.875 L0 1.625 L2.81458 0 L5.62917 1.625 L5.62917 4.875 L2.81458 6.5 z"/>
<path fill="#c0c0c0" stroke="#c0c0c0" d="M2.814580646572104 -0.0000011198957453487614 L2.814580646572104 -0.0000011198957453487614 L5.629168793144241 1.6250020903355096 L5.629168793144241 1.6250020903355096 z"/>
<path fill="#c0c0c0" stroke="#c0c0c0" d="M5.629165172576906 4.875 L5.629165172576906 4.875 L5.629165172576906 1.625 L5.629165172576906 1.625 z"/>
<path fill="#c0c0c0" stroke="#c0c0c0" d="M-3.2509586710297316e-16 4.875 L-3.2509586710297316e-16 4.875 L2.814580646572104 6.499998880104254 L2.814580646572104 6.499998880104254 z"/>
<path fill="#c0c0c0" stroke="#c0c0c0" d="M2.8145806465721055 6.500001119895748 L2.8145806465721055 6.500001119895748 L5.629168793144243 4.874997909664493 L5.629168793144243 4.874997909664493 z"/>
<path fill="#c0c0c0" stroke="#c0c0c0" d="M1.2132742754480206e-15 1.625000000000002 L1.2132742754480206e-15 1.625000000000002 L2.8145806465721055 0.0000011198957480132966 L2.8145806465721055 0.0000011198957480132966 z"/>
<path fill="#c0c0c0" stroke="#c0c0c0" d="M1.7763568394002505e-15 1.625 L1.7763568394002505e-15 1.625 L1.7763568394002505e-15 4.875 L1.7763568394002505e-15 4.875 z"/>
<path fill="#c0c0c0" stroke="#c0c0c0" d="M0 1.625 L0 4.875 L2.81458 6.5 L5.62917 4.875 L5.62917 1.625 L2.81458 0 z"/>
</svg>