<?xml version="1.0" encoding="UTF-8"?>
<!-- Generated by jsxcad -->
<!DOCTYPE svg PUBLIC "-//W3C//DTD SVG 1.1 Tiny//EN" "http://www.w3.org/Graphics/SVG/1.1/DTD/svg11-tiny.dtd">
<svg baseProfile="tiny" height="6.450000000000004mm" width="5.5858638544096335mm" viewBox="0 0 5.5858638544096335 6.450000000000004" version="1.1" stroke="black" stroke-width=".1" fill="none" xmlns="http://www.w3.org/2000/svg">
<path fill="#c0c0c0" stroke="#c0c0c0" d="M0 1.6125 L2.79293 0 L5.58586 1.6125 L5.58586 4.8375 L2.79293 6.45 L0 4.8375 z"/>
<path fill="#c0c0c0" stroke="#c0c0c0" d="M2.7929304818012035 -8.345041634979071e-7 L2.7929304818012035 -8.345041634979071e-7 L5.585860963602407 1.6124983309916727 L5.585860963602407 1.6124983309916727 z"/>
<path fill="#c0c0c0" stroke="#c0c0c0" d="M5.585863854409632 4.8375 L5.585863854409632 4.8375 L5.585863854409632 1.6125 L5.585863854409632 1.6125 z"/>
<path fill="#c0c0c0" stroke="#c0c0c0" d="M-3.1022169656002557e-16 4.8375 L-3.1022169656002557e-16 4.8375 L2.7929304818012035 6.449999165495837 L2.7929304818012035 6.449999165495837 z"/>
<path fill="#c0c0c0" stroke="#c0c0c0" d="M2.792930481801205 6.4500008345041655 L2.792930481801205 6.4500008345041655 L5.585860963602408 4.837501669008329 L5.585860963602408 4.837501669008329 z"/>
<path fill="#c0c0c0" stroke="#c0c0c0" d="M1.77635683940025e-15 1.6124999999999998 L1.77635683940025e-15 1.6124999999999998 L2.2204460492503127e-15 4.8374999999999995 L2.2204460492503127e-15 4.8374999999999995 z"/>
<path fill="#c0c0c0" stroke="#c0c0c0" d="M1.3094224187226662e-15 1.6125000000000023 L1.3094224187226662e-15 1.6125000000000023 L2.792930481801205 8.345041661624424e-7 L2.792930481801205 8.345041661624424e-7 z"/>
<path fill="#c0c0c0" stroke="#c0c0c0" d="M2.79293 0 L0 1.6125 L0 4.8375 L2.79293 6.45 L5.58586 4.8375 L5.58586 1.6125 z"/>
</svg>